<?xml version="1.0" encoding="utf-8"?>
<!-- Generator: Adobe Illustrator 24.1.2, SVG Export Plug-In . SVG Version: 6.00 Build 0)  -->
<svg version="1.1" id="Capa_2" xmlns="http://www.w3.org/2000/svg" xmlns:xlink="http://www.w3.org/1999/xlink" x="0px" y="0px"
	 viewBox="0 0 179.64 171.43" style="enable-background:new 0 0 179.64 171.43;" xml:space="preserve">
<style type="text/css">
	.st0{fill:#FFFFFF;stroke:#010202;stroke-width:3;stroke-miterlimit:10;}
	.st1{fill:none;stroke:#010202;stroke-width:3;stroke-miterlimit:10;}
</style>
<path class="st0" d="M145.88,98.63h-83c-4.02,0-7.29-3.26-7.29-7.29V36.48c0-4.02,3.26-7.29,7.29-7.29h83
	c4.02,0,7.29,3.26,7.29,7.29v54.86C153.17,95.36,149.9,98.63,145.88,98.63z"/>
<line class="st1" x1="66.6" y1="38.63" x2="105.58" y2="67.04"/>
<line class="st1" x1="144.88" y1="38.41" x2="103.98" y2="67.06"/>
<line class="st1" x1="67.02" y1="93.05" x2="89.1" y2="68.41"/>
<line class="st1" x1="144.4" y1="93.12" x2="121.02" y2="67.77"/>
<path class="st0" d="M60.03,79.13c0,0,6.11-3.64,0-10.29l-9.54-13.93c0,0-4.18-7.61-8.46-3.43l-9.43,7.5c0,0-6.81,7.39-3.16,17.36
	c0,0,60.3,78.43,81.73,65.52l9.43-8.8c0,0,7.86-6.14-4.64-12.36l-10.5-6.43c0,0-4.29-4.5-10.5,1.07c0,0-5.3,9.36-10.22,6.57
	l-29.21-28C55.53,93.91,48.88,83.2,60.03,79.13z"/>
</svg>
