<?xml version="1.0" encoding="utf-8"?>
<!-- Generator: Adobe Illustrator 24.1.2, SVG Export Plug-In . SVG Version: 6.00 Build 0)  -->
<svg version="1.1" id="Capa_2" xmlns="http://www.w3.org/2000/svg" xmlns:xlink="http://www.w3.org/1999/xlink" x="0px" y="0px"
	 viewBox="0 0 280.29 248.14" style="enable-background:new 0 0 280.29 248.14;" xml:space="preserve">
<circle cx="88.07" cy="57.64" r="41.93"/>
<circle cx="195" cy="57.64" r="41.93"/>
<circle cx="141.51" cy="135.02" r="26.31"/>
<path d="M14,202.71c0,0-9-92.57,47.57-99c0,0,64.29-4.15,63.86,5c0,0-30,16-4.29,49c0,0-36.43,9.43-29.57,57.43
	C91.57,215.14,46.57,216.86,14,202.71z"/>
<path d="M269.81,202.71c0,0,9-92.57-47.57-99c0,0-64.29-4.15-63.86,5c0,0,30,16,4.29,49c0,0,36.43,9.43,29.57,57.43
	C192.24,215.14,237.24,216.86,269.81,202.71z"/>
<path d="M96.29,225c0,0-8.14-60.86,29.14-61.71h35.14c0,0,34.29,0.86,25.29,61.71C185.86,225,151.57,243,96.29,225z"/>
</svg>
