<?xml version="1.0" encoding="utf-8"?>
<!-- Generator: Adobe Illustrator 24.1.2, SVG Export Plug-In . SVG Version: 6.00 Build 0)  -->
<svg version="1.1" id="Capa_1" xmlns="http://www.w3.org/2000/svg" xmlns:xlink="http://www.w3.org/1999/xlink" x="0px" y="0px"
	 viewBox="0 0 612 291" style="enable-background:new 0 0 612 291;" xml:space="preserve">
<style type="text/css">
	.st0{fill:#111111;}
</style>
<g>
	<path class="st0" d="M121.9,173.18h3.13l2.26,14.58h0.05l8.38-14.58h3.13l-3.58,16.95h-2.16l3.47-14.84h-0.05l-8.64,14.84h-2.16
		l-2.21-14.84h-0.05l-2.97,14.84h-2.16L121.9,173.18z"/>
	<path class="st0" d="M145.9,184.6c-0.05,0.36-0.07,0.71-0.07,1.07c0,1.9,1.54,2.97,3.18,2.97c1.76,0,2.97-0.83,3.54-2.35h2.02
		c-0.64,2.71-2.87,4.13-5.56,4.13c-4.06,0-5.2-2.8-5.2-4.94c0-4.7,2.94-7.91,6.32-7.91c3.61,0,5.2,1.97,5.2,5.44
		c0,0.64-0.12,1.26-0.19,1.59H145.9z M153.3,182.82c0.14-1.73-0.64-3.47-2.87-3.47c-2.37,0-3.66,1.57-4.25,3.47H153.3z"/>
	<path class="st0" d="M171.87,190.13h-1.9l0.43-1.76h-0.05c-1.21,1.59-2.42,2.04-4.06,2.04c-3.13,0-4.82-2.04-4.82-5.03
		c0-3.73,2.52-7.81,6.81-7.81c1.5,0,3.35,0.52,3.82,2.16h0.05l1.31-6.55h1.99L171.87,190.13z M166.64,188.63
		c3.06,0,4.8-3.54,4.8-6.1c0-1.83-1.09-3.18-3.09-3.18c-3.21,0-4.87,3.32-4.87,6.03C163.49,187.37,164.44,188.63,166.64,188.63z"/>
	<path class="st0" d="M182.33,177.85h2.02l-2.56,12.28h-2.02L182.33,177.85z M184.83,175.65h-2.04l0.52-2.47h2.04L184.83,175.65z"/>
	<path class="st0" d="M199.78,181.75c0-1.5-1.02-2.4-2.59-2.4c-3.11,0-4.77,3.09-4.77,5.77c0,1.9,0.78,3.51,3.04,3.51
		c1.73,0,3.02-1.02,3.59-2.52h2.02c-0.71,2.73-2.78,4.3-5.6,4.3c-3.35,0-5.06-2-5.06-5.29c0-3.89,2.4-7.55,6.79-7.55
		c2.78,0,4.51,1.33,4.61,4.18H199.78z"/>
	<path class="st0" d="M209.84,177.85h2.02l-2.56,12.28h-2.02L209.84,177.85z M212.34,175.65h-2.04l0.52-2.47h2.04L212.34,175.65z"/>
	<path class="st0" d="M219.88,177.85h1.95l-0.38,1.85h0.05c1.02-1.38,2.68-2.14,4.37-2.14c2.3,0,3.42,1,3.42,3.16
		c0,0.52-0.14,1.45-0.36,2.4l-1.5,7h-2.02l1.57-7.17c0.09-0.45,0.28-1.47,0.28-1.9c0-1.16-0.95-1.71-2.14-1.71
		c-1.12,0-2.28,0.62-3.04,1.42c-0.71,0.62-1.09,1.59-1.35,2.56l-1.42,6.79h-2.02L219.88,177.85z"/>
	<path class="st0" d="M236.62,181.56c0.4-2.73,2.71-3.99,5.32-3.99c2.37,0,4.49,0.64,4.49,3.13c0,0.69-0.24,1.57-0.38,2.23
		l-0.78,3.35c-0.1,0.5-0.33,1.19-0.33,1.76c0,0.57,0.26,0.76,0.59,0.76c0.19,0,0.45-0.1,0.64-0.17l-0.31,1.5
		c-0.31,0.17-0.88,0.29-1.23,0.29c-1.12,0-1.71-0.67-1.59-1.73l-0.05-0.05c-0.85,1.14-2.04,1.78-4.11,1.78
		c-2.04,0-3.75-0.95-3.75-3.47c0-3.56,3.49-3.8,6.2-4.04c2.14-0.19,3.09-0.31,3.09-1.95c0-1.33-1.4-1.61-2.47-1.61
		c-1.54,0-3.06,0.62-3.3,2.21H236.62z M239.35,188.63c1.57,0,2.73-0.52,3.44-1.61c0.66-0.93,0.78-2.02,1.07-3.16h-0.05
		c-0.88,0.52-2.47,0.64-3.94,0.83c-1.45,0.21-2.73,0.67-2.73,2.23C237.14,188.06,238.21,188.63,239.35,188.63z"/>
	<path class="st0" d="M266.2,177.85h1.9l-0.43,1.76h0.05c1.21-1.59,2.42-2.04,4.06-2.04c3.13,0,4.82,2.04,4.82,5.03
		c0,3.73-2.52,7.81-6.81,7.81c-1.5,0-3.35-0.52-3.82-2.16h-0.05l-1.31,6.58h-1.99L266.2,177.85z M271.42,179.35
		c-3.06,0-4.8,3.54-4.8,6.1c0,1.83,1.09,3.18,3.09,3.18c3.21,0,4.87-3.32,4.87-6.03C274.58,180.61,273.63,179.35,271.42,179.35z"/>
	<path class="st0" d="M283.86,181.56c0.4-2.73,2.71-3.99,5.32-3.99c2.37,0,4.49,0.64,4.49,3.13c0,0.69-0.24,1.57-0.38,2.23
		l-0.78,3.35c-0.1,0.5-0.33,1.19-0.33,1.76c0,0.57,0.26,0.76,0.59,0.76c0.19,0,0.45-0.1,0.64-0.17l-0.31,1.5
		c-0.31,0.17-0.88,0.29-1.23,0.29c-1.12,0-1.71-0.67-1.59-1.73l-0.05-0.05c-0.85,1.14-2.04,1.78-4.11,1.78
		c-2.04,0-3.75-0.95-3.75-3.47c0-3.56,3.49-3.8,6.2-4.04c2.14-0.19,3.09-0.31,3.09-1.95c0-1.33-1.4-1.61-2.47-1.61
		c-1.54,0-3.06,0.62-3.3,2.21H283.86z M286.59,188.63c1.57,0,2.73-0.52,3.44-1.61c0.66-0.93,0.78-2.02,1.07-3.16h-0.05
		c-0.88,0.52-2.47,0.64-3.94,0.83c-1.45,0.21-2.73,0.67-2.73,2.23C284.38,188.06,285.45,188.63,286.59,188.63z"/>
	<path class="st0" d="M302.11,177.85h1.9l-0.59,2.64h0.05c0.95-1.69,2.4-2.92,4.46-2.92c0.24,0,0.48-0.05,0.71,0l-0.48,2.16
		c-0.19-0.02-0.4-0.02-0.59-0.02c-0.5,0-0.74,0-1.21,0.12c-1.12,0.29-1.97,1.02-2.61,2c-0.55,0.78-0.83,1.95-1.02,2.87l-1.16,5.44
		h-2.02L302.11,177.85z"/>
	<path class="st0" d="M313.58,181.56c0.4-2.73,2.71-3.99,5.32-3.99c2.37,0,4.49,0.64,4.49,3.13c0,0.69-0.24,1.57-0.38,2.23
		l-0.78,3.35c-0.09,0.5-0.33,1.19-0.33,1.76c0,0.57,0.26,0.76,0.59,0.76c0.19,0,0.45-0.1,0.64-0.17l-0.31,1.5
		c-0.31,0.17-0.88,0.29-1.23,0.29c-1.12,0-1.71-0.67-1.59-1.73l-0.05-0.05c-0.85,1.14-2.04,1.78-4.11,1.78
		c-2.04,0-3.75-0.95-3.75-3.47c0-3.56,3.49-3.8,6.2-4.04c2.14-0.19,3.09-0.31,3.09-1.95c0-1.33-1.4-1.61-2.47-1.61
		c-1.54,0-3.06,0.62-3.3,2.21H313.58z M316.31,188.63c1.57,0,2.73-0.52,3.44-1.61c0.67-0.93,0.78-2.02,1.07-3.16h-0.05
		c-0.88,0.52-2.47,0.64-3.94,0.83c-1.45,0.21-2.73,0.67-2.73,2.23C314.1,188.06,315.17,188.63,316.31,188.63z"/>
	<path class="st0" d="M344.17,173.18h2.02l-3.56,16.95h-2.02L344.17,173.18z"/>
	<path class="st0" d="M352.01,181.56c0.4-2.73,2.71-3.99,5.32-3.99c2.37,0,4.49,0.64,4.49,3.13c0,0.69-0.24,1.57-0.38,2.23
		l-0.78,3.35c-0.09,0.5-0.33,1.19-0.33,1.76c0,0.57,0.26,0.76,0.59,0.76c0.19,0,0.45-0.1,0.64-0.17l-0.31,1.5
		c-0.31,0.17-0.88,0.29-1.23,0.29c-1.12,0-1.71-0.67-1.59-1.73l-0.05-0.05c-0.85,1.14-2.04,1.78-4.11,1.78
		c-2.04,0-3.75-0.95-3.75-3.47c0-3.56,3.49-3.8,6.2-4.04c2.14-0.19,3.09-0.31,3.09-1.95c0-1.33-1.4-1.61-2.47-1.61
		c-1.54,0-3.06,0.62-3.3,2.21H352.01z M354.74,188.63c1.57,0,2.73-0.52,3.44-1.61c0.67-0.93,0.78-2.02,1.07-3.16h-0.05
		c-0.88,0.52-2.47,0.64-3.94,0.83c-1.45,0.21-2.73,0.67-2.73,2.23C352.53,188.06,353.6,188.63,354.74,188.63z"/>
	<path class="st0" d="M381.99,179.63h-2.09l0.36-1.78h2.09c0.64-2.49,0.74-4.87,3.96-4.87c0.57,0,1.14,0.05,1.69,0.19l-0.33,1.71
		c-0.31-0.07-0.64-0.12-0.95-0.12c-2.02,0-1.9,1.59-2.37,3.09h2.35l-0.33,1.78h-2.38l-2.25,10.49h-2.02L381.99,179.63z"/>
	<path class="st0" d="M392.19,181.56c0.4-2.73,2.71-3.99,5.32-3.99c2.37,0,4.49,0.64,4.49,3.13c0,0.69-0.24,1.57-0.38,2.23
		l-0.78,3.35c-0.09,0.5-0.33,1.19-0.33,1.76c0,0.57,0.26,0.76,0.59,0.76c0.19,0,0.45-0.1,0.64-0.17l-0.31,1.5
		c-0.31,0.17-0.88,0.29-1.23,0.29c-1.12,0-1.71-0.67-1.59-1.73l-0.05-0.05c-0.85,1.14-2.04,1.78-4.11,1.78
		c-2.04,0-3.75-0.95-3.75-3.47c0-3.56,3.49-3.8,6.2-4.04c2.14-0.19,3.09-0.31,3.09-1.95c0-1.33-1.4-1.61-2.47-1.61
		c-1.54,0-3.06,0.62-3.3,2.21H392.19z M394.93,188.63c1.57,0,2.73-0.52,3.44-1.61c0.67-0.93,0.78-2.02,1.07-3.16h-0.05
		c-0.88,0.52-2.47,0.64-3.94,0.83c-1.45,0.21-2.73,0.67-2.73,2.23C392.72,188.06,393.78,188.63,394.93,188.63z"/>
	<path class="st0" d="M410.5,177.85h1.88l-0.45,1.83l0.05,0.05c1.04-1.28,2.59-2.16,4.27-2.16c1.54,0,2.73,0.62,3.09,2.21
		c0.95-1.31,2.56-2.21,4.2-2.21c1.73,0,3.42,0.76,3.42,2.75c0,0.71-0.19,1.76-0.36,2.45l-1.54,7.36h-2.02l1.71-7.79
		c0.1-0.38,0.19-0.97,0.19-1.33c0-0.95-0.81-1.66-1.88-1.66c-1.14,0-2.4,0.81-3.09,1.69c-0.67,0.71-0.93,1.71-1.14,2.75l-1.35,6.34
		h-2.02l1.47-7c0.21-0.95,0.38-1.88,0.38-2.16c0-1.02-0.62-1.61-1.71-1.61c-1.12,0-2.3,0.76-3.02,1.57
		c-0.85,0.83-1.04,1.57-1.31,2.78l-1.38,6.43h-2.02L410.5,177.85z"/>
	<path class="st0" d="M435.42,177.85h2.02l-2.56,12.28h-2.02L435.42,177.85z M437.91,175.65h-2.04l0.52-2.47h2.04L437.91,175.65z"/>
	<path class="st0" d="M446.43,173.18h2.02l-3.56,16.95h-2.02L446.43,173.18z"/>
	<path class="st0" d="M455.45,177.85h2.02l-2.56,12.28h-2.02L455.45,177.85z M457.95,175.65h-2.04l0.52-2.47h2.04L457.95,175.65z"/>
	<path class="st0" d="M464.28,181.56c0.4-2.73,2.71-3.99,5.32-3.99c2.37,0,4.49,0.64,4.49,3.13c0,0.69-0.24,1.57-0.38,2.23
		l-0.78,3.35c-0.09,0.5-0.33,1.19-0.33,1.76c0,0.57,0.26,0.76,0.59,0.76c0.19,0,0.45-0.1,0.64-0.17l-0.31,1.5
		c-0.31,0.17-0.88,0.29-1.23,0.29c-1.12,0-1.71-0.67-1.59-1.73l-0.05-0.05c-0.85,1.14-2.04,1.78-4.11,1.78
		c-2.04,0-3.75-0.95-3.75-3.47c0-3.56,3.49-3.8,6.2-4.04c2.14-0.19,3.09-0.31,3.09-1.95c0-1.33-1.4-1.61-2.47-1.61
		c-1.54,0-3.06,0.62-3.3,2.21H464.28z M467.01,188.63c1.57,0,2.73-0.52,3.44-1.61c0.67-0.93,0.78-2.02,1.07-3.16h-0.05
		c-0.88,0.52-2.47,0.64-3.94,0.83c-1.45,0.21-2.73,0.67-2.73,2.23C464.81,188.06,465.87,188.63,467.01,188.63z"/>
</g>
<g>
	<g>
		<path class="st0" d="M73.21,111.69h6.89l8.62,25.93l8.69-25.93h6.89l6.24,37.17h-6.84l-3.99-23.47l-7.9,23.47h-6.24l-7.83-23.47
			l-4.08,23.47h-6.9L73.21,111.69z"/>
		<path class="st0" d="M127.51,111.69h7.18l14.3,37.17h-7.35l-2.91-7.66h-15.17l-3.02,7.66h-7.35L127.51,111.69z M131.14,121.54
			l-4.99,12.76h9.94L131.14,121.54z"/>
		<path class="st0" d="M154.2,111.69h7.1v24.04c0,2.07,0.18,3.54,0.54,4.39c0.36,0.86,0.96,1.54,1.79,2.06
			c0.83,0.51,1.84,0.77,3.02,0.77c1.25,0,2.32-0.29,3.22-0.86c0.9-0.57,1.52-1.3,1.87-2.18c0.34-0.88,0.52-2.57,0.52-5.06v-23.15
			h7.1v22.16c0,3.74-0.21,6.33-0.63,7.78s-1.23,2.85-2.41,4.19c-1.19,1.35-2.56,2.35-4.11,2.99c-1.55,0.65-3.35,0.97-5.41,0.97
			c-2.7,0-5.04-0.62-7.04-1.86c-2-1.24-3.42-2.79-4.28-4.65c-0.86-1.86-1.29-5.01-1.29-9.44V111.69z"/>
		<path class="st0" d="M188.06,111.69h7.5c4.11,0,7.03,0.37,8.77,1.1c1.74,0.73,3.14,1.95,4.2,3.65c1.06,1.7,1.59,3.71,1.59,6.04
			c0,2.44-0.59,4.48-1.76,6.13c-1.17,1.64-2.94,2.88-5.29,3.73l8.81,16.53h-7.73l-8.36-15.74h-0.65v15.74h-7.08V111.69z
			 M195.13,126.22h2.22c2.25,0,3.8-0.3,4.65-0.89c0.85-0.59,1.27-1.57,1.27-2.94c0-0.81-0.21-1.52-0.63-2.12
			c-0.42-0.6-0.98-1.03-1.69-1.29c-0.71-0.26-2-0.39-3.88-0.39h-1.94V126.22z"/>
		<path class="st0" d="M217.09,111.69h7.02v37.17h-7.02V111.69z"/>
		<path class="st0" d="M266.24,118.22l-4.95,4.72c-3.37-3.56-7.15-5.34-11.36-5.34c-3.55,0-6.54,1.21-8.97,3.64
			c-2.43,2.43-3.65,5.42-3.65,8.98c0,2.48,0.54,4.68,1.62,6.6c1.08,1.92,2.6,3.43,4.57,4.53c1.97,1.1,4.16,1.64,6.56,1.64
			c2.05,0,3.93-0.38,5.63-1.15c1.7-0.77,3.57-2.16,5.6-4.19l4.8,5c-2.75,2.68-5.34,4.54-7.78,5.58c-2.44,1.04-5.23,1.55-8.36,1.55
			c-5.78,0-10.51-1.83-14.19-5.5c-3.68-3.66-5.52-8.36-5.52-14.09c0-3.71,0.84-7,2.51-9.88c1.68-2.88,4.08-5.2,7.2-6.95
			c3.12-1.75,6.49-2.63,10.09-2.63c3.07,0,6.02,0.65,8.86,1.94S264.18,115.83,266.24,118.22z"/>
		<path class="st0" d="M271.92,111.69h7.02v37.17h-7.02V111.69z"/>
		<path class="st0" d="M304.46,110.75c5.26,0,9.78,1.9,13.57,5.71c3.78,3.81,5.68,8.45,5.68,13.92c0,5.42-1.87,10.02-5.6,13.77
			c-3.73,3.76-8.26,5.63-13.59,5.63c-5.58,0-10.22-1.93-13.91-5.79c-3.69-3.86-5.54-8.44-5.54-13.75c0-3.55,0.86-6.82,2.58-9.8
			c1.72-2.98,4.08-5.34,7.09-7.09C297.74,111.62,300.98,110.75,304.46,110.75z M304.38,117.68c-3.44,0-6.33,1.2-8.68,3.59
			c-2.34,2.39-3.52,5.43-3.52,9.12c0,4.11,1.48,7.36,4.43,9.75c2.29,1.87,4.92,2.8,7.89,2.8c3.36,0,6.21-1.21,8.57-3.64
			c2.36-2.43,3.54-5.42,3.54-8.97c0-3.54-1.19-6.53-3.57-8.98C310.68,118.9,307.79,117.68,304.38,117.68z"/>
		<path class="st0" d="M344.87,111.69h8.38c5.4,0,9.42,0.67,12.04,2.01c2.63,1.34,4.79,3.52,6.49,6.53
			c1.7,3.02,2.55,6.54,2.55,10.56c0,2.86-0.48,5.5-1.43,7.9s-2.26,4.39-3.94,5.98s-3.49,2.68-5.44,3.29s-5.33,0.91-10.15,0.91h-8.51
			V111.69z M351.9,118.51v23.45h3.29c3.23,0,5.58-0.37,7.04-1.11c1.46-0.74,2.65-1.99,3.58-3.74s1.39-3.91,1.39-6.48
			c0-3.95-1.1-7.01-3.31-9.18c-1.99-1.96-5.18-2.93-9.58-2.93H351.9z"/>
		<path class="st0" d="M392.42,111.69h7.17l14.3,37.17h-7.35l-2.91-7.66h-15.17l-3.02,7.66h-7.35L392.42,111.69z M396.06,121.54
			l-4.99,12.76h9.94L396.06,121.54z M397.26,98.9h8.16l-9.25,9.9h-4.95L397.26,98.9z"/>
		<path class="st0" d="M416.55,111.69h7.27l9.35,26.41l9.49-26.41h7.27l-13.39,37.17h-6.82L416.55,111.69z"/>
		<path class="st0" d="M455.09,111.69h7.03v37.17h-7.03V111.69z"/>
		<path class="st0" d="M470.08,111.69h7.08v30.42h10.31v6.75h-17.38V111.69z"/>
		<path class="st0" d="M504.19,111.69h7.17l14.3,37.17h-7.35l-2.91-7.66h-15.17l-3.02,7.66h-7.35L504.19,111.69z M507.82,121.54
			l-4.99,12.76h9.94L507.82,121.54z"/>
	</g>
</g>
</svg>
