<svg id="Capa_1" data-name="Capa 1" xmlns="http://www.w3.org/2000/svg" viewBox="0 0 601.04 125.65"><defs><style>.cls-1{fill:#111;}</style></defs><path class="cls-1" d="M77.59,197.65H81.7l3,19.09h.06l11-19.09H99.8l-4.7,22.2H92.27l4.54-19.44h-.06L85.43,219.85H82.6l-2.89-19.44h-.06l-3.89,19.44H72.93Z" transform="translate(-5.39 -100.36)"/><path class="cls-1" d="M109,212.6a11.09,11.09,0,0,0-.09,1.4,3.91,3.91,0,0,0,4.17,3.89,4.56,4.56,0,0,0,4.63-3.08h2.65c-.84,3.55-3.77,5.41-7.28,5.41-5.32,0-6.81-3.67-6.81-6.47,0-6.15,3.85-10.35,8.27-10.35,4.73,0,6.81,2.58,6.81,7.12a9.7,9.7,0,0,1-.25,2.08Zm9.71-2.33c.18-2.27-.84-4.54-3.76-4.54-3.12,0-4.79,2.05-5.57,4.54Z" transform="translate(-5.39 -100.36)"/><path class="cls-1" d="M143,219.85h-2.49l.56-2.3h-.06a6,6,0,0,1-5.32,2.67c-4.1,0-6.31-2.67-6.31-6.59,0-4.88,3.3-10.23,8.93-10.23,2,0,4.38.68,5,2.83h.06l1.71-8.58h2.62Zm-6.84-2c4,0,6.28-4.63,6.28-8a3.83,3.83,0,0,0-4-4.17c-4.2,0-6.38,4.35-6.38,7.9C132.06,216.24,133.31,217.89,136.2,217.89Z" transform="translate(-5.39 -100.36)"/><path class="cls-1" d="M156.75,203.77h2.64L156,219.85h-2.64Zm3.26-2.89h-2.67l.68-3.23h2.68Z" transform="translate(-5.39 -100.36)"/><path class="cls-1" d="M179.6,208.87c0-2-1.33-3.14-3.39-3.14-4.07,0-6.25,4-6.25,7.56,0,2.48,1,4.6,4,4.6a4.9,4.9,0,0,0,4.7-3.3h2.64a7.15,7.15,0,0,1-7.34,5.63c-4.38,0-6.62-2.61-6.62-6.93,0-5.1,3.14-9.89,8.89-9.89,3.64,0,5.91,1.74,6,5.47Z" transform="translate(-5.39 -100.36)"/><path class="cls-1" d="M192.78,203.77h2.65l-3.36,16.08h-2.65Zm3.27-2.89h-2.68l.69-3.23h2.67Z" transform="translate(-5.39 -100.36)"/><path class="cls-1" d="M205.93,203.77h2.55L208,206.2h.06a7.11,7.11,0,0,1,5.72-2.8c3,0,4.48,1.3,4.48,4.13a17.1,17.1,0,0,1-.47,3.15l-2,9.17h-2.64l2-9.39a17.08,17.08,0,0,0,.38-2.49c0-1.52-1.25-2.24-2.8-2.24a5.78,5.78,0,0,0-4,1.87,6.59,6.59,0,0,0-1.78,3.36l-1.86,8.89h-2.65Z" transform="translate(-5.39 -100.36)"/><path class="cls-1" d="M227.85,208.62c.53-3.57,3.55-5.22,7-5.22,3.11,0,5.88.84,5.88,4.1a16.17,16.17,0,0,1-.5,2.93l-1,4.38a13.59,13.59,0,0,0-.43,2.3c0,.75.34,1,.77,1a2.9,2.9,0,0,0,.84-.22l-.4,2a4,4,0,0,1-1.62.37,1.88,1.88,0,0,1-2.08-2.27l-.06-.06c-1.12,1.49-2.68,2.33-5.38,2.33s-4.92-1.24-4.92-4.54c0-4.66,4.57-5,8.12-5.28,2.8-.25,4-.41,4-2.56,0-1.74-1.83-2.11-3.23-2.11-2,0-4,.81-4.32,2.89Zm3.58,9.27a5,5,0,0,0,4.51-2.12,11.54,11.54,0,0,0,1.4-4.13h-.06c-1.16.68-3.24.84-5.17,1.09s-3.57.87-3.57,2.92C228.54,217.14,229.94,217.89,231.43,217.89Z" transform="translate(-5.39 -100.36)"/><path class="cls-1" d="M266.59,203.77h2.49l-.56,2.3h.06a6,6,0,0,1,5.32-2.67c4.11,0,6.31,2.67,6.31,6.59,0,4.88-3.29,10.23-8.92,10.23-2,0-4.39-.68-5-2.83h-.06L264.51,226H261.9Zm6.84,2c-4,0-6.28,4.63-6.28,8a3.83,3.83,0,0,0,4,4.17c4.2,0,6.38-4.35,6.38-7.9C277.57,207.38,276.33,205.73,273.43,205.73Z" transform="translate(-5.39 -100.36)"/><path class="cls-1" d="M289.72,208.62c.53-3.57,3.55-5.22,7-5.22,3.11,0,5.88.84,5.88,4.1a15.35,15.35,0,0,1-.5,2.93l-1,4.38a13.59,13.59,0,0,0-.43,2.3c0,.75.34,1,.78,1a2.84,2.84,0,0,0,.83-.22l-.4,2a4,4,0,0,1-1.62.37,1.88,1.88,0,0,1-2.08-2.27l-.06-.06c-1.12,1.49-2.68,2.33-5.38,2.33s-4.92-1.24-4.92-4.54c0-4.66,4.58-5,8.12-5.28,2.8-.25,4-.41,4-2.56,0-1.74-1.83-2.11-3.23-2.11-2,0-4,.81-4.32,2.89Zm3.58,9.27a5,5,0,0,0,4.51-2.12,11.35,11.35,0,0,0,1.4-4.13h-.06c-1.15.68-3.24.84-5.17,1.09s-3.57.87-3.57,2.92C290.41,217.14,291.81,217.89,293.3,217.89Z" transform="translate(-5.39 -100.36)"/><path class="cls-1" d="M313.63,203.77h2.49l-.78,3.45h.07c1.24-2.2,3.14-3.82,5.84-3.82a4.92,4.92,0,0,1,.94,0l-.63,2.83a6.78,6.78,0,0,0-.78,0,5.55,5.55,0,0,0-1.58.15,5.9,5.9,0,0,0-3.42,2.61,10.63,10.63,0,0,0-1.34,3.77l-1.52,7.12h-2.65Z" transform="translate(-5.39 -100.36)"/><path class="cls-1" d="M328.65,208.62c.53-3.57,3.54-5.22,7-5.22,3.11,0,5.87.84,5.87,4.1a16.15,16.15,0,0,1-.49,2.93l-1,4.38a12.66,12.66,0,0,0-.44,2.3c0,.75.35,1,.78,1a2.9,2.9,0,0,0,.84-.22l-.4,2a4.08,4.08,0,0,1-1.62.37,1.88,1.88,0,0,1-2.08-2.27l-.07-.06c-1.12,1.49-2.67,2.33-5.38,2.33s-4.91-1.24-4.91-4.54c0-4.66,4.57-5,8.12-5.28,2.8-.25,4-.41,4-2.56,0-1.74-1.83-2.11-3.23-2.11-2,0-4,.81-4.33,2.89Zm3.58,9.27a5,5,0,0,0,4.51-2.12,11.34,11.34,0,0,0,1.39-4.13h-.06c-1.15.68-3.23.84-5.16,1.09s-3.58.87-3.58,2.92C329.33,217.14,330.73,217.89,332.23,217.89Z" transform="translate(-5.39 -100.36)"/><path class="cls-1" d="M368.73,197.65h2.64l-4.66,22.2h-2.65Z" transform="translate(-5.39 -100.36)"/><path class="cls-1" d="M379,208.62c.52-3.57,3.54-5.22,7-5.22,3.11,0,5.88.84,5.88,4.1a15.35,15.35,0,0,1-.5,2.93l-1,4.38a13.59,13.59,0,0,0-.43,2.3c0,.75.34,1,.78,1a2.9,2.9,0,0,0,.84-.22l-.41,2a4,4,0,0,1-1.61.37,1.88,1.88,0,0,1-2.09-2.27l-.06-.06c-1.12,1.49-2.68,2.33-5.38,2.33S377,219,377,215.68c0-4.66,4.57-5,8.11-5.28,2.8-.25,4.05-.41,4.05-2.56,0-1.74-1.84-2.11-3.24-2.11-2,0-4,.81-4.32,2.89Zm3.57,9.27a5,5,0,0,0,4.51-2.12,11.35,11.35,0,0,0,1.4-4.13h-.06c-1.15.68-3.24.84-5.16,1.09s-3.58.87-3.58,2.92C379.67,217.14,381.07,217.89,382.56,217.89Z" transform="translate(-5.39 -100.36)"/><path class="cls-1" d="M418.25,206.1h-2.73l.46-2.33h2.74c.84-3.26,1-6.37,5.19-6.37a8.57,8.57,0,0,1,2.21.25l-.43,2.23a5.93,5.93,0,0,0-1.25-.15c-2.64,0-2.49,2.08-3.11,4h3.08L424,206.1h-3.11l-3,13.75h-2.64Z" transform="translate(-5.39 -100.36)"/><path class="cls-1" d="M431.62,208.62c.53-3.57,3.55-5.22,7-5.22,3.11,0,5.88.84,5.88,4.1a15.35,15.35,0,0,1-.5,2.93l-1,4.38a13.59,13.59,0,0,0-.43,2.3c0,.75.34,1,.77,1a2.9,2.9,0,0,0,.84-.22l-.4,2a4.08,4.08,0,0,1-1.62.37A1.88,1.88,0,0,1,440,218l-.06-.06c-1.12,1.49-2.68,2.33-5.38,2.33s-4.92-1.24-4.92-4.54c0-4.66,4.57-5,8.12-5.28,2.8-.25,4-.41,4-2.56,0-1.74-1.83-2.11-3.23-2.11-2,0-4,.81-4.32,2.89Zm3.58,9.27a5,5,0,0,0,4.51-2.12,11.54,11.54,0,0,0,1.4-4.13H441c-1.15.68-3.23.84-5.16,1.09s-3.57.87-3.57,2.92C432.31,217.14,433.7,217.89,435.2,217.89Z" transform="translate(-5.39 -100.36)"/><path class="cls-1" d="M455.59,203.77h2.46l-.59,2.4.06.06a7.34,7.34,0,0,1,5.6-2.83c2,0,3.58.81,4,2.89a7,7,0,0,1,5.51-2.89c2.27,0,4.47,1,4.47,3.61a15.73,15.73,0,0,1-.46,3.2l-2,9.64H472l2.24-10.2a8.39,8.39,0,0,0,.25-1.74,2.28,2.28,0,0,0-2.46-2.18,5.71,5.71,0,0,0-4,2.21,7.25,7.25,0,0,0-1.49,3.61l-1.77,8.3h-2.65l1.93-9.17a21,21,0,0,0,.5-2.84,2,2,0,0,0-2.24-2.11,5.83,5.83,0,0,0-3.95,2.05,6,6,0,0,0-1.71,3.64l-1.8,8.43h-2.65Z" transform="translate(-5.39 -100.36)"/><path class="cls-1" d="M488.24,203.77h2.64l-3.36,16.08h-2.64Zm3.26-2.89h-2.67l.68-3.23h2.68Z" transform="translate(-5.39 -100.36)"/><path class="cls-1" d="M502.66,197.65h2.65l-4.67,22.2H498Z" transform="translate(-5.39 -100.36)"/><path class="cls-1" d="M514.48,203.77h2.64l-3.36,16.08h-2.64Zm3.26-2.89h-2.67l.68-3.23h2.68Z" transform="translate(-5.39 -100.36)"/><path class="cls-1" d="M526,208.62c.53-3.57,3.55-5.22,7-5.22,3.11,0,5.88.84,5.88,4.1a15.35,15.35,0,0,1-.5,2.93l-1,4.38a13.59,13.59,0,0,0-.43,2.3c0,.75.34,1,.78,1a3,3,0,0,0,.84-.22l-.41,2a4,4,0,0,1-1.62.37,1.88,1.88,0,0,1-2.08-2.27l-.06-.06c-1.12,1.49-2.68,2.33-5.38,2.33s-4.91-1.24-4.91-4.54c0-4.66,4.57-5,8.11-5.28,2.8-.25,4-.41,4-2.56,0-1.74-1.83-2.11-3.23-2.11-2,0-4,.81-4.32,2.89Zm3.58,9.27a5,5,0,0,0,4.51-2.12,11.35,11.35,0,0,0,1.4-4.13h-.06c-1.15.68-3.24.84-5.17,1.09s-3.57.87-3.57,2.92C526.73,217.14,528.13,217.89,529.62,217.89Z" transform="translate(-5.39 -100.36)"/><path class="cls-1" d="M13.82,117.11h9l11.28,34,11.39-33.95h9l8.17,48.68h-9l-5.22-30.74L38.19,165.79H30L19.77,135.05l-5.35,30.74h-9Z" transform="translate(-5.39 -100.36)"/><path class="cls-1" d="M84.94,117.11h9.4l18.73,48.68h-9.64l-3.8-10H79.76l-4,10H66.17ZM89.7,130l-6.53,16.72h13Z" transform="translate(-5.39 -100.36)"/><path class="cls-1" d="M119.9,117.11h9.3v31.48a16.4,16.4,0,0,0,.71,5.75,5.75,5.75,0,0,0,2.35,2.7,7.42,7.42,0,0,0,4,1,7.71,7.71,0,0,0,4.22-1.13,6,6,0,0,0,2.45-2.86q.68-1.73.67-6.63V117.11h9.3v29q0,7.35-.82,10.2a15.62,15.62,0,0,1-8.54,9.41,18.22,18.22,0,0,1-7.08,1.28,17,17,0,0,1-9.22-2.44,14.07,14.07,0,0,1-5.61-6.09q-1.7-3.65-1.69-12.36Z" transform="translate(-5.39 -100.36)"/><path class="cls-1" d="M164.25,117.11h9.82q8.06,0,11.48,1.44a11.74,11.74,0,0,1,5.51,4.78,14.63,14.63,0,0,1,2.08,7.91,13.53,13.53,0,0,1-2.3,8,14,14,0,0,1-6.93,4.88l11.53,21.64H185.31l-10.95-20.62h-.84v20.62h-9.27Zm9.27,19h2.9c3,0,5-.39,6.09-1.16a4.37,4.37,0,0,0,1.66-3.86,4.72,4.72,0,0,0-.82-2.77,4.6,4.6,0,0,0-2.21-1.69,16.53,16.53,0,0,0-5.08-.52h-2.54Z" transform="translate(-5.39 -100.36)"/><path class="cls-1" d="M202.28,117.11h9.2v48.68h-9.2Z" transform="translate(-5.39 -100.36)"/><path class="cls-1" d="M266.65,125.66l-6.48,6.18q-6.62-7-14.88-7a16.31,16.31,0,0,0-16.54,16.53,17.41,17.41,0,0,0,2.12,8.65,15.16,15.16,0,0,0,6,5.93,17.34,17.34,0,0,0,8.6,2.15,17.83,17.83,0,0,0,7.38-1.5,26.71,26.71,0,0,0,7.34-5.49l6.28,6.56a34.68,34.68,0,0,1-10.19,7.3,27.78,27.78,0,0,1-11,2q-11.36,0-18.58-7.2t-7.23-18.45a25.18,25.18,0,0,1,3.29-12.94,24.38,24.38,0,0,1,9.43-9.1,26.54,26.54,0,0,1,13.22-3.45,28.14,28.14,0,0,1,21.22,9.78Z" transform="translate(-5.39 -100.36)"/><path class="cls-1" d="M274.09,117.11h9.2v48.68h-9.2Z" transform="translate(-5.39 -100.36)"/><path class="cls-1" d="M316.71,115.88a24.19,24.19,0,0,1,17.76,7.48,24.9,24.9,0,0,1,7.44,18.24,24.63,24.63,0,0,1-7.34,18,25.41,25.41,0,0,1-36-.2,25.58,25.58,0,0,1,18.15-43.56Zm-.1,9.07a15.3,15.3,0,0,0-11.37,4.7,16.36,16.36,0,0,0-4.6,11.95q0,8.07,5.8,12.77a15.87,15.87,0,0,0,10.33,3.68A15.07,15.07,0,0,0,328,153.28a17.17,17.17,0,0,0,0-23.51A15.23,15.23,0,0,0,316.61,125Z" transform="translate(-5.39 -100.36)"/><path class="cls-1" d="M369.64,117.11h11q10.62,0,15.77,2.63a20.47,20.47,0,0,1,8.5,8.55,30,30,0,0,1,1.47,24.18,21.43,21.43,0,0,1-5.15,7.83,18.25,18.25,0,0,1-7.13,4.3q-3.84,1.2-13.29,1.19H369.64Zm9.2,8.93v30.72h4.31c4.23,0,7.31-.49,9.21-1.46a11.1,11.1,0,0,0,4.69-4.9,18.07,18.07,0,0,0,1.82-8.49q0-7.74-4.34-12Q390.63,126,382,126Z" transform="translate(-5.39 -100.36)"/><path class="cls-1" d="M431.92,117.11h9.4l18.73,48.68h-9.64l-3.8-10H426.74l-4,10h-9.63Zm4.76,12.9-6.53,16.72h13Zm1.57-29.65h10.69l-12.11,13h-6.49Z" transform="translate(-5.39 -100.36)"/><path class="cls-1" d="M463.52,117.11h9.53l12.25,34.58,12.42-34.58h9.52L489.7,165.79h-8.94Z" transform="translate(-5.39 -100.36)"/><path class="cls-1" d="M514,117.11h9.2v48.68H514Z" transform="translate(-5.39 -100.36)"/><path class="cls-1" d="M533.63,117.11h9.27V157h13.5v8.84H533.63Z" transform="translate(-5.39 -100.36)"/><path class="cls-1" d="M578.31,117.11h9.39l18.73,48.68H596.8l-3.81-10H573.12l-4,10h-9.63Zm4.75,12.9-6.53,16.72h13Z" transform="translate(-5.39 -100.36)"/></svg>