<svg id="Capa_1" data-name="Capa 1" xmlns="http://www.w3.org/2000/svg" xmlns:xlink="http://www.w3.org/1999/xlink" viewBox="0 0 126.56 128.54"><defs><style>.cls-1{fill:url(#linear-gradient);}.cls-2{fill:url(#Degradado_sin_nombre_3);}</style><linearGradient id="linear-gradient" x1="2157.76" y1="-222.28" x2="2157.76" y2="-117.4" gradientTransform="translate(2478.64 -34.73) rotate(180)" gradientUnits="userSpaceOnUse"><stop offset="0" stop-color="#b1cb09"/><stop offset="0.12" stop-color="#aac90b"/><stop offset="0.3" stop-color="#95c311"/><stop offset="0.51" stop-color="#73b91b"/><stop offset="0.76" stop-color="#44ab29"/><stop offset="1" stop-color="#0f9b39"/></linearGradient><linearGradient id="Degradado_sin_nombre_3" x1="250.29" y1="147.35" x2="348.57" y2="147.35" gradientUnits="userSpaceOnUse"><stop offset="0.01" stop-color="#324c75"/><stop offset="0.34" stop-color="#2c3e64"/><stop offset="0.99" stop-color="#1b1837"/><stop offset="1" stop-color="#1b1837"/></linearGradient></defs><path class="cls-1" d="M332.83,87a4.84,4.84,0,1,0-5.73,5.64,4.8,4.8,0,0,0,4.56-1.51,59.36,59.36,0,0,1,28,19.36,59,59,0,0,1,3.59,68.59l-20.53-71.47,0-.07a.7.7,0,0,0-.06-.19,2.4,2.4,0,0,0-.12-.38,2.09,2.09,0,0,0-.08-.23c0-.1-.07-.2-.11-.3s-.06-.17-.1-.26l-.06-.14,0,0,0-.06-.12-.27,0,0-.09-.2-.18-.33s-.05-.09-.07-.13l-.23-.39a.33.33,0,0,0,0-.06l0,0c-.09-.14-.18-.29-.28-.43l0-.06-.26-.36-.08-.09,0,0a2.91,2.91,0,0,0-.26-.33l-.15-.18-.17-.2-.06-.06-.17-.18c-.07-.07-.13-.14-.19-.19s-.15-.15-.23-.23l-.16-.15-.21-.18-.09-.08,0,0-.05,0,0,0-.34-.27-.1-.07-.4-.3,0,0h0l-.43-.28-.07,0-.4-.24-.11,0a2.93,2.93,0,0,0-.39-.21l-.1-.05h0l-.35-.17-.19-.08,0,0-.07,0-.23-.09-.3-.11-.23-.08-.35-.11-.13,0-.12,0-.44-.11h-.05l-.55-.12h0l-.5-.08-.11,0-.48,0-.14,0h-.46c-.06,0-.16-.47-.16-.47H331s-.13.47-.18.47h-.45l-.15,0-.47,0-.1,0-.5.08h-.07l-.54.11h0l-.44.11-.14,0-.14.05-.35.11-.17.06h0l-.3.1-.3.13-.14,0-.12,0,0,0-.06,0-.27.13-.07,0-.08,0-.06,0-.34.18-.09,0-.38.23-.08,0-.42.28h0l0,0-.42.3-.12.09-.34.28-.11.09,0,0-.24.22-.13.12,0,0,0,0a2.39,2.39,0,0,0-.23.22l-.21.21,0,0a1,1,0,0,0-.14.15c-.08.08-.15.17-.22.25l-.06.07-.08.09-.22.27-.11.15v0c-.09.11-.17.23-.26.36a.62.62,0,0,0-.08.12c-.08.11-.16.23-.23.35a.43.43,0,0,0,0,.07c-.07.11-.14.22-.2.33l0,.06,0,0,0,.09,1.9,1-1.92-1-.18.33,0,0c0,.06-.05.11-.08.16s-.1.22-.13.3a2.93,2.93,0,0,0-.12.28,1.28,1.28,0,0,0-.09.22c-.05.12-.1.25-.16.42l0,.15c-.05.15-.1.3-.14.45h0l0,0a.83.83,0,0,1,0,.15v0l-6.2,21.66-6.2-21.61a1.21,1.21,0,0,0-.05-.18v0h0v0c0-.15-.09-.3-.14-.44l-.05-.16,0-.07c0-.11-.07-.21-.11-.32l-.11-.27,0,0-.09-.19-.15-.32-.09-.2-.2-.38-.05-.08-.22-.38-.09-.15,0,0-.19-.29-.08-.11h0l-.26-.36,0,0a.22.22,0,0,0-.05-.08l-.26-.31a1.19,1.19,0,0,0-.15-.18c-.07-.08-.13-.16-.21-.24a1.07,1.07,0,0,0-.14-.16l-.05,0-.19-.2-.24-.23-.16-.15-.31-.28,0,0-.07-.06-.27-.22-.06,0-.1-.08-.38-.27-.08-.06-.4-.26h0l-.06,0h0l-.31-.19-.1,0-.13-.08-.31-.16-.06,0-.08,0-.07,0-.37-.18-.17-.07-.08,0-.24-.1-.33-.12-.23-.08-.32-.1h0l-.13,0-.13,0-.45-.11h0l-.53-.11h0l-.51-.08-.11,0-.47,0-.15,0h-.36s-.08,0-.12.53h0a9.77,9.77,0,0,0-.17-1h-.49s-.13.47-.18.47H295l-.14,0-.47,0-.11,0-.51.08h0l-.55.11h0l-.46.11-.12,0-.13.05h0l-.31.1-.24.08-.32.12-.24.1-.08,0-.19.08-.36.17-.07,0,0,0c-.14.06-.28.14-.41.21h0l-.09,0-.44.26-.06,0-.4.26-.08.06-.38.27-.1.07-.08.07-.26.21,0,0,0,0a3,3,0,0,0-.32.28l-.18.16-.22.22-.23.23,0,0a1,1,0,0,0-.13.15l-.22.24-.16.18-.06.08-.18.23-.06.07,0,0-.26.37h0a.35.35,0,0,1-.05.08c-.09.13-.18.26-.26.4a.75.75,0,0,0-.07.12,2.88,2.88,0,0,0-.22.38.75.75,0,0,0-.07.12c-.06.11-.12.22-.17.33l-.11.21c-.05.1-.09.21-.13.29l-.09.21,0,.06-.11.27c0,.11-.09.23-.14.38a1.21,1.21,0,0,1-.05.14c0,.14-.09.28-.14.46v0l0,.05-.05.17-15.51,54a4.85,4.85,0,1,0,4.14,1.19l15.52-54.1a.14.14,0,0,1,0-.06l0-.13h0a2.76,2.76,0,0,1,.08-.27s0,0,0-.06h0l0-.09a2,2,0,0,1,.08-.22l0,0a.3.3,0,0,1,0-.1l.08-.2.09-.19,0,0h0l0-.06a1.24,1.24,0,0,1,.1-.2l.06-.1v0a2.39,2.39,0,0,1,.13-.21l.06-.1.13-.21v0l0-.05h0l.18-.24.07-.11L290,106l.12-.14,0,0,.15-.18,0,0,.09-.1a1.36,1.36,0,0,1,.12-.12l.12-.11.11-.12h0L291,105l0,0,.17-.13.08-.07.07,0,.22-.16.06,0,.27-.17h0l0,0,.23-.14.08,0,.22-.12.09,0,0,0,.21-.09.33-.14.15-.06.08,0h0l.09,0,.24-.08h.05l.08,0,.32-.08h0l.36-.07h.06l.34,0h0l.28,0h.33s.08,0,.12.23h.34c0-.24.09-.23.13-.23h.33l.28,0h.06l.32,0h.05l.37.08h.05l.29.07.07,0h0l.06,0,.24.08.06,0,.06,0,.07,0,.15.06.32.13.22.1.05,0,.06,0h0l.21.12.08,0,.05,0,.19.11,0,0,0,0,.25.16,0,0h0l.22.16.05,0,.09.07.15.12.09.07.2.18h0l.12.12.13.12.1.11.09.09,0,0,.15.18,0,0h0l.05.06.13.16.07.1c.07.08.13.17.19.25h0l0,.05.15.23h0a.41.41,0,0,0,.05.09l.14.23,0,.07,0,0,.09.17a.17.17,0,0,0,0,.06l0,.07.1.22.08.18a1,1,0,0,1,0,.1l0,0c0,.07.05.14.08.23l0,.08h0c0,.12.08.23.11.34l0,.1h0s0,0,0,.06l8.27,28.87a2.15,2.15,0,0,0,4.13,0l8.27-28.83a.57.57,0,0,1,0-.14.19.19,0,0,1,0-.08c0-.11.07-.22.11-.36v0l0-.09c0-.06,0-.13.07-.2l.07-.18,0,0a1.14,1.14,0,0,1,.06-.15l.09-.19,0-.06v0l.14-.27.06-.1a1.18,1.18,0,0,1,.11-.19.41.41,0,0,1,.05-.09h0l.16-.24,0-.08.14-.19.09-.12h0l.2-.25,0,0,.16-.18,0,0,.1-.1a.57.57,0,0,1,.11-.11l0-.05.07-.06,0,0h0l.1-.09.18-.16.1-.09.22-.17.07-.05.22-.17h0l.28-.18,0,0,.29-.16.05,0h0l.21-.11,0,0,0,0,.06,0,.17-.08.06,0,.12-.06.21-.08.16-.06.1,0,.06,0,.26-.09h0l.09,0,.3-.08h0l.37-.07h0l.35,0h0l.27,0H331c.05,0,.09,0,.13.23h.34c.05-.24.09-.23.14-.23h.32l.28,0h.06l.34,0h0l.37.07.08,0,.25.07.09,0h0l.32.1.07,0,.07,0,.16.06.21.09h0l.07,0,0,0,.21.1.1,0h0l.2.11.11.06.26.15h0l.05,0,.27.18h0l.24.17.06.05.24.19.14.12.14.12,0,0,.05,0,.17.16.1.11.05,0,.07.08.16.18,0,0,0,0,0,0,.16.2h0l.07.1a1.4,1.4,0,0,1,.13.18l.06.08v0a1.64,1.64,0,0,1,.14.22l0,0,0,0h0l.14.24v0l.05.1a.91.91,0,0,1,.09.17l0,.06.07.16.05.09a.61.61,0,0,0,.05.12l0,0v0l.05.11v0q0,.11.09.24l0,0,0,.07c0,.1.06.19.08.29l0,.07v0l0,.07,21.77,75.8a2.16,2.16,0,0,0,3.79.7,63.28,63.28,0,0,0-1.14-77.5A63.6,63.6,0,0,0,332.83,87Z" transform="translate(-250.29 -83.08)"/><path class="cls-2" d="M304,205.52a4.85,4.85,0,1,0-.84,4.21,64,64,0,0,0,10.45.87,63.08,63.08,0,0,0,34-9.91,2.15,2.15,0,0,0,.91-2.4l-15.16-52.72a2.15,2.15,0,0,0-2.07-1.55h0a2.13,2.13,0,0,0-2.06,1.56l-8.27,28.85,0,.06,0,.12a2.47,2.47,0,0,1-.1.29l0,.1,0,.08-.07.2,0,.09,0,.08-.05.11a.59.59,0,0,1,0,.08l-.09.2,0,.08-.12.23v0l0,0c0,.08-.09.15-.13.22l-.08.13a2.17,2.17,0,0,1-.15.22l0,.05h0l-.15.21-.09.12h0l-.15.18,0,0-.07.08-.09.11s0,0-.05,0l-.11.12-.1.1-.18.18-.09.09-.19.15-.1.1-.21.16-.09.07c-.15.11-.32.23-.55.37h0l-.07,0-.21.13h0l-.27.14-.07,0-.27.12-.13.06-.13.05-.08,0-.14,0-.14.05-.26.09-.1,0h0l-.28.07-.07,0h0L315,180l-.1,0-.28,0-.14,0-.19,0h-1.32l-.22,0-.14,0-.28,0-.1,0-.29-.06h-.07l-.3-.07h0l-.11,0-.24-.07,0,0-.12,0-.13,0-.09,0-.09,0-.15-.06-.3-.14-.06,0-.22-.12-.09,0-.21-.11,0,0-.05,0a4.63,4.63,0,0,1-.54-.37l-.08-.06-.22-.17-.06-.06-.22-.18,0,0-.09-.09-.15-.14-.12-.12-.09-.11-.06-.06a.53.53,0,0,1-.09-.11l-.07-.07-.06-.08-.12-.14a.44.44,0,0,0-.08-.11l-.15-.21,0-.07-.07-.1-.07-.11,0-.06-.05-.07-.12-.21,0,0-.05-.08-.09-.18-.06-.13c0-.07-.07-.14-.1-.2l-.07-.18-.06-.13-.09-.25a.56.56,0,0,1,0-.12c0-.11-.07-.22-.11-.33l0-.11v0L298,145.58a2.15,2.15,0,0,0-2.07-1.56h0a2.13,2.13,0,0,0-2.06,1.55l-14.33,49.9a59.09,59.09,0,0,1-13.06-12.69,59,59,0,0,1,1-72.26,59.38,59.38,0,0,1,28-19.36A4.85,4.85,0,1,0,294.31,87a63.63,63.63,0,0,0-30.2,20.81,63.28,63.28,0,0,0,15.39,92.81,2.12,2.12,0,0,0,1.24.39,2.15,2.15,0,0,0,2.08-1.6L295.88,154l6.2,21.64s0,.09,0,.14a.64.64,0,0,1,0,.07c.05.18.11.35.17.52v0l0,.1c0,.12.09.24.14.37v0s0,.08.06.14l0,.09.11.25a.25.25,0,0,0,0,.07c0,.06.05.13.08.19a.3.3,0,0,1,0,.08l.09.17a3.24,3.24,0,0,0,.17.32l.07.15,0,0,.2.33.07.11.16.26.06.08,0,0,0,.08,0,.05c.07.11.15.21.22.31l.06.08,0,0a.21.21,0,0,0,0,.06c.08.1.15.2.23.29l.14.16a2.85,2.85,0,0,0,.23.26l.19.21.05,0,.13.13.26.26.06.06.09.08.3.26h0l.09.08.35.28.09.07c.26.19.53.38.82.57l.16.1.1.06.28.16h0l.07,0,.41.22.1,0,.05,0,.1,0,.25.11.06,0,.15.06.32.13.27.1,0,0,.05,0,.16.05.39.12.06,0,.12,0,.4.1.16,0,.47.1.1,0,.44.06.13,0,.54.06h.07l.28,0h.31c.19,0,.4,0,.6,0h.31l.27,0h.08l.53-.06.13,0,.44-.06.11,0,.48-.1.15,0,.41-.11.09,0,.08,0,.4-.12.19-.07.08,0,.25-.09.3-.12.19-.08.09,0,.33-.16.1,0,.42-.23h0l0,0,.31-.18.11-.06.12-.08c.34-.22.62-.41.87-.6l.07-.06.36-.28.08-.08c.11-.09.22-.18.32-.28l.11-.1h0l.28-.27.14-.14,0,0,.19-.21.25-.28.13-.16.21-.26.05-.06,0,0,.06-.07.23-.32,0,0,0-.08c.09-.13.18-.26.27-.41l.06-.1.18-.3.07-.13,0-.09.14-.27.11-.21,0-.08,0-.06.08-.17c.05-.1.09-.21.13-.31a1.08,1.08,0,0,0,.07-.18c.05-.11.09-.23.14-.35v-.05a.58.58,0,0,0,.06-.17c.07-.17.12-.35.18-.55v0L331.26,154l12.64,44a58.71,58.71,0,0,1-30.33,8.39A60.38,60.38,0,0,1,304,205.52Z" transform="translate(-250.29 -83.08)"/></svg>